HIERARCHY
ROOT Hips
{
  OFFSET -0.589095 22.1471 2.58842
  CHANNELS 6 Xposition Yposition Zposition Zrotation Xrotation Yrotation
  JOINT BN_Bip01_Pelvis
  {
    OFFSET -3.49357 -5.29363 -0.000213444
    CHANNELS 6 Xposition Yposition Zposition Zrotation Xrotation Yrotation
    JOINT BN_leg_R_01
    {
      OFFSET 10.8127 -7.82778 -6.29737
      CHANNELS 6 Xposition Yposition Zposition Zrotation Xrotation Yrotation
      JOINT BN_leg_R_02
      {
        OFFSET 8.91071 0 0
        CHANNELS 6 Xposition Yposition Zposition Zrotation Xrotation Yrotation
        JOINT BN_leg_R_03
        {
          OFFSET 15.6024 0 0
          CHANNELS 6 Xposition Yposition Zposition Zrotation Xrotation Yrotation
          JOINT BN_leg_R_04
          {
            OFFSET 9.68174 0 0
            CHANNELS 6 Xposition Yposition Zposition Zrotation Xrotation Yrotation
            JOINT BN_leg_R_05
            {
              OFFSET 10.6982 0 0
              CHANNELS 6 Xposition Yposition Zposition Zrotation Xrotation Yrotation
              JOINT BN_Leg_R_05Nub
              {
                OFFSET 11.1504 0 0
                CHANNELS 6 Xposition Yposition Zposition Zrotation Xrotation Yrotation
                End Site
                {
                  OFFSET 0 0 0
                }
              }
            }
          }
        }
      }
    }
    JOINT BN_leg_R_06
    {
      OFFSET 6.51511 -7.99898 -4.29089
      CHANNELS 6 Xposition Yposition Zposition Zrotation Xrotation Yrotation
      JOINT BN_Leg_R_07
      {
        OFFSET 9.03709 0 0
        CHANNELS 6 Xposition Yposition Zposition Zrotation Xrotation Yrotation
        JOINT BN_Leg_R_08
        {
          OFFSET 18.7638 0 0
          CHANNELS 6 Xposition Yposition Zposition Zrotation Xrotation Yrotation
          JOINT BN_Leg_R_09
          {
            OFFSET 10.9666 0 0
            CHANNELS 6 Xposition Yposition Zposition Zrotation Xrotation Yrotation
            JOINT BN_Leg_R_10
            {
              OFFSET 10.8726 0 0
              CHANNELS 6 Xposition Yposition Zposition Zrotation Xrotation Yrotation
              JOINT BN_Leg_R_10Nub
              {
                OFFSET 11.2648 0 0
                CHANNELS 6 Xposition Yposition Zposition Zrotation Xrotation Yrotation
                End Site
                {
                  OFFSET 0 0 0
                }
              }
            }
          }
        }
      }
    }
    JOINT BN_Leg_R_11
    {
      OFFSET 2.71429 -8.18693 -0.209972
      CHANNELS 6 Xposition Yposition Zposition Zrotation Xrotation Yrotation
      JOINT BN_Leg_R_12
      {
        OFFSET 9.8713 0 0
        CHANNELS 6 Xposition Yposition Zposition Zrotation Xrotation Yrotation
        JOINT BN_Leg_R_13
        {
          OFFSET 21.8657 0 0
          CHANNELS 6 Xposition Yposition Zposition Zrotation Xrotation Yrotation
          JOINT BN_Leg_R_14
          {
            OFFSET 11.0011 0 0
            CHANNELS 6 Xposition Yposition Zposition Zrotation Xrotation Yrotation
            JOINT BN_Leg_R_15
            {
              OFFSET 12.8798 0 0
              CHANNELS 6 Xposition Yposition Zposition Zrotation Xrotation Yrotation
              JOINT BN_Leg_R_15Nub
              {
                OFFSET 13.0642 0 0
                CHANNELS 6 Xposition Yposition Zposition Zrotation Xrotation Yrotation
                End Site
                {
                  OFFSET 0 0 0
                }
              }
            }
          }
        }
      }
    }
    JOINT BN_Leg_L_11
    {
      OFFSET 2.7143 8.18692 -0.209982
      CHANNELS 6 Xposition Yposition Zposition Zrotation Xrotation Yrotation
      JOINT BN_Leg_L_12
      {
        OFFSET 9.87129 0 0
        CHANNELS 6 Xposition Yposition Zposition Zrotation Xrotation Yrotation
        JOINT BN_Leg_L_13
        {
          OFFSET 21.8657 0 0
          CHANNELS 6 Xposition Yposition Zposition Zrotation Xrotation Yrotation
          JOINT BN_Leg_L_14
          {
            OFFSET 11.0011 0 0
            CHANNELS 6 Xposition Yposition Zposition Zrotation Xrotation Yrotation
            JOINT BN_Leg_L_15
            {
              OFFSET 12.8798 0 0
              CHANNELS 6 Xposition Yposition Zposition Zrotation Xrotation Yrotation
              JOINT BN_Leg_L_15Nub
              {
                OFFSET 13.0642 0 0
                CHANNELS 6 Xposition Yposition Zposition Zrotation Xrotation Yrotation
                End Site
                {
                  OFFSET 0 0 0
                }
              }
            }
          }
        }
      }
    }
    JOINT BN_leg_L_06
    {
      OFFSET 6.51511 7.99896 -4.29091
      CHANNELS 6 Xposition Yposition Zposition Zrotation Xrotation Yrotation
      JOINT BN_Leg_L_07
      {
        OFFSET 9.03709 0 0
        CHANNELS 6 Xposition Yposition Zposition Zrotation Xrotation Yrotation
        JOINT BN_Leg_L_08
        {
          OFFSET 18.7638 0 0
          CHANNELS 6 Xposition Yposition Zposition Zrotation Xrotation Yrotation
          JOINT BN_Leg_L_09
          {
            OFFSET 10.9666 0 0
            CHANNELS 6 Xposition Yposition Zposition Zrotation Xrotation Yrotation
            JOINT BN_Leg_L_10
            {
              OFFSET 10.8726 0 0
              CHANNELS 6 Xposition Yposition Zposition Zrotation Xrotation Yrotation
              JOINT BN_Leg_L_10Nub
              {
                OFFSET 11.2649 0 0
                CHANNELS 6 Xposition Yposition Zposition Zrotation Xrotation Yrotation
                End Site
                {
                  OFFSET 0 0 0
                }
              }
            }
          }
        }
      }
    }
    JOINT BN_leg_L_01
    {
      OFFSET 10.8127 7.82776 -6.29737
      CHANNELS 6 Xposition Yposition Zposition Zrotation Xrotation Yrotation
      JOINT BN_leg_L_02
      {
        OFFSET 8.91072 0 0
        CHANNELS 6 Xposition Yposition Zposition Zrotation Xrotation Yrotation
        JOINT BN_leg_L_03
        {
          OFFSET 15.6024 0 0
          CHANNELS 6 Xposition Yposition Zposition Zrotation Xrotation Yrotation
          JOINT BN_leg_L_04
          {
            OFFSET 9.68174 0 0
            CHANNELS 6 Xposition Yposition Zposition Zrotation Xrotation Yrotation
            JOINT BN_leg_L_05
            {
              OFFSET 10.6982 0 0
              CHANNELS 6 Xposition Yposition Zposition Zrotation Xrotation Yrotation
              JOINT BN_Leg_L_05Nub
              {
                OFFSET 11.1504 0 0
                CHANNELS 6 Xposition Yposition Zposition Zrotation Xrotation Yrotation
                End Site
                {
                  OFFSET 0 0 0
                }
              }
            }
          }
        }
      }
    }
    JOINT BN_Eye_L_01
    {
      OFFSET 28.5502 2.54627 -3.93739
      CHANNELS 6 Xposition Yposition Zposition Zrotation Xrotation Yrotation
      JOINT BN_Eye_L_02
      {
        OFFSET 2.30267 0 0
        CHANNELS 6 Xposition Yposition Zposition Zrotation Xrotation Yrotation
        JOINT BN_Eye_L_03
        {
          OFFSET 5.31894 0 0
          CHANNELS 6 Xposition Yposition Zposition Zrotation Xrotation Yrotation
          JOINT BN_Eye_L_04
          {
            OFFSET 9.71244 0 0
            CHANNELS 6 Xposition Yposition Zposition Zrotation Xrotation Yrotation
            End Site
            {
              OFFSET 0 0 0
            }
          }
        }
      }
    }
    JOINT BN_Eye_R_01
    {
      OFFSET 28.5502 -2.54612 -3.93738
      CHANNELS 6 Xposition Yposition Zposition Zrotation Xrotation Yrotation
      JOINT BN_Eye_R_02
      {
        OFFSET 2.30267 0 0
        CHANNELS 6 Xposition Yposition Zposition Zrotation Xrotation Yrotation
        JOINT BN_Eye_R_03
        {
          OFFSET 5.31896 0 0
          CHANNELS 6 Xposition Yposition Zposition Zrotation Xrotation Yrotation
          JOINT BN_Eye_R_04
          {
            OFFSET 9.71244 0 0
            CHANNELS 6 Xposition Yposition Zposition Zrotation Xrotation Yrotation
            End Site
            {
              OFFSET 0 0 0
            }
          }
        }
      }
    }
    JOINT BN_Arm_L_01
    {
      OFFSET 15.9737 8.03546 -8.36195
      CHANNELS 6 Xposition Yposition Zposition Zrotation Xrotation Yrotation
      JOINT BN_Arm_L_02
      {
        OFFSET 16.8869 0 0
        CHANNELS 6 Xposition Yposition Zposition Zrotation Xrotation Yrotation
        JOINT BN_Arm_L_03
        {
          OFFSET 8.42975 0 0
          CHANNELS 6 Xposition Yposition Zposition Zrotation Xrotation Yrotation
          JOINT BN_Arm_L_04
          {
            OFFSET 7.53864 -0.0312023 2.09083
            CHANNELS 6 Xposition Yposition Zposition Zrotation Xrotation Yrotation
            End Site
            {
              OFFSET 0 0 0
            }
          }
        }
      }
    }
    JOINT BN_Arm_R_01
    {
      OFFSET 14.7806 -6.70232 -9.44366
      CHANNELS 6 Xposition Yposition Zposition Zrotation Xrotation Yrotation
      JOINT BN_Arm_R_02
      {
        OFFSET 19.9827 0 0
        CHANNELS 6 Xposition Yposition Zposition Zrotation Xrotation Yrotation
        JOINT BN_Arm_R_03
        {
          OFFSET 17.4553 0 0
          CHANNELS 6 Xposition Yposition Zposition Zrotation Xrotation Yrotation
          JOINT BN_Arm_R_04
          {
            OFFSET 13.3834 -2.22657 7.3982
            CHANNELS 6 Xposition Yposition Zposition Zrotation Xrotation Yrotation
            End Site
            {
              OFFSET 0 0 0
            }
          }
        }
      }
    }
  }
}
MOTION
Frames:	4
Frame Time:	0.0333333
-0.589095 22.1471 2.58842 0.00348704 -2.1352e-019 90 -3.49357 -5.29363 -0.000213444 -97.581 -79.2645 -155.798 10.8127 -7.82778 -6.29737 -153.396 4.85962 44.823 8.91071 1.90735e-006 0 111.248 2.42904 1.47961 15.6024 2.32458e-006 8.88178e-016 -136.462 6.28524 2.89681 9.68174 -3.55272e-015 -3.55271e-015 -16.4107 0.550775 -9.67387 10.6982 -3.8147e-006 0 -29.7119 4.11665 0.661596 11.1504 -1.77636e-015 0 4.68302e-007 1.62227e-009 -4.81692e-009 6.51511 -7.99898 -4.29089 -134.832 21.327 21.0687 9.03709 -1.90735e-006 -2.83122e-007 100.182 -2.35052 -2.8825 18.7638 1.43051e-006 2.38419e-007 -94.7255 6.84214 8.86437 10.9666 3.8147e-006 2.66453e-015 -35.1692 -0.417748 -1.91175 10.8726 7.6294e-006 0 -33.3732 -0.0164369 -3.11223 11.2648 -7.6294e-006 8.88179e-016 1.26696e-007 9.761e-006 -2.48827e-007 2.71429 -8.18693 -0.209972 -98.8033 21.9348 -0.134862 9.8713 0 4.76837e-007 24.9581 2.45147 -0.123453 21.8657 0 -1.77636e-015 -48.5717 -0.832317 2.29507 11.0011 0 -1.77636e-015 -11.9453 -0.295302 -0.63922 12.8798 0 -1.90735e-006 -19.5814 -0.0311521 0.118834 13.0642 7.62939e-006 1.90735e-006 5.79956e-007 1.05883e-005 2.72203e-007 2.7143 8.18692 -0.209982 124.45 -35.0781 -16.4598 9.87129 -3.55271e-015 2.38419e-007 -49.7725 -2.35797 -0.369081 21.8657 -4.76837e-007 -7.15256e-007 40.3992 -0.265459 6.48423 11.0011 -3.8147e-006 0 14.1844 0.307084 -0.704276 12.8798 -7.10543e-015 -1.43051e-006 22.3805 0.0306492 0.100886 13.0642 -7.62939e-006 -3.33786e-006 -1.43824e-006 1.04457e-005 8.52781e-007 6.51511 7.99896 -4.29091 128.575 -31.4113 7.75363 9.03709 3.8147e-006 -2.22045e-016 -77.0699 1.88365 -2.84211 18.7638 2.86102e-006 0 82.296 0.328122 -1.1552 10.9666 0 -4.44089e-016 32.2372 0.456001 -1.72265 10.8726 -7.10542e-015 -4.76837e-007 30.4609 0.016915 -2.93349 11.2649 3.81469e-006 -6.66134e-016 -1.9858e-007 6.55463e-007 -8.32324e-008 10.8127 7.82776 -6.29737 135.722 -10.1307 53.0929 8.91072 0 4.76837e-007 -110.772 -2.40827 1.49237 15.6024 1.43051e-006 2.38419e-006 143.701 -5.06684 -2.82222 9.68174 1.90735e-006 0 7.95452 -1.2318 -7.09895 10.6982 -3.8147e-006 -1.43051e-006 18.7302 -4.11513 1.77134 11.1504 0 4.76837e-007 8.67232e-007 1.03373e-005 2.48432e-007 28.5502 2.54627 -3.93739 89.9967 -39.1518 50.3844 2.30267 -3.8147e-006 -1.77636e-015 -36.5389 -0.0143678 -0.00106022 5.31894 -3.8147e-006 9.53674e-007 -36.3849 -1.89803 -11.9892 9.71244 9.53674e-007 -3.55272e-015 -8.8771 3.70432 -9.60389 28.5502 -2.54612 -3.93738 89.9968 -39.1541 129.609 2.30267 -3.8147e-006 0 -36.5389 -6.29321e-006 5.65794e-007 5.31896 3.55271e-015 0 -38.3689 -0.385197 -4.73785 9.71244 0 2.86102e-006 -20.7329 0.923075 -12.2707 15.9737 8.03546 -8.36195 44.9242 50.0769 26.2768 16.8869 3.55271e-015 1.90735e-006 -101.951 -0.00322612 0.00712772 8.42975 0 -3.8147e-006 -37.5018 2.22251 -1.47663 7.53864 -0.0312023 2.09083 -12.3467 -1.50632 20.6754 14.7806 -6.70232 -9.44366 -4.91744 -85.036 59.6843 19.9827 9.53674e-007 -1.90735e-006 65.9891 3.76655 4.18112 17.4553 7.6294e-006 -1.90735e-006 80.4848 3.0325 0.0315247 13.3834 -2.22657 7.3982 8.80067 1.66399 12.226 
-0.589095 22.1571 2.58842 0.00348704 -2.1352e-019 90 -3.49357 -5.29363 -0.000213444 -97.6378 -79.2676 -155.834 10.8127 -7.82778 -6.29737 -152.258 6.18325 44.7361 8.91071 1.90735e-006 -2.66454e-015 110.722 2.40743 1.49344 15.6024 2.32458e-006 -6.21725e-015 -136.213 6.44458 3.07458 9.68174 1.42109e-014 5.32907e-015 -17.2406 0.484372 -9.90577 10.6982 -3.8147e-006 -7.9936e-015 -30.7527 4.11668 0.542725 11.1504 0 2.66454e-015 4.68302e-007 1.62227e-009 -4.81692e-009 6.51511 -7.99898 -4.29089 -134.246 21.3184 21.0307 9.03709 -1.90735e-006 -2.83122e-007 98.4718 -2.3184 -2.89888 18.7638 1.43051e-006 2.38419e-007 -92.5966 6.84871 9.07859 10.9666 3.8147e-006 8.88178e-016 -34.934 -0.421493 -1.8998 10.8726 7.6294e-006 -2.66454e-015 -33.139 -0.0167013 -3.09577 11.2648 -7.6294e-006 2.66454e-015 1.26696e-007 9.761e-006 -2.48827e-007 2.71429 -8.18693 -0.209972 -98.6299 22.0867 0.0475545 9.8713 -7.10543e-015 4.76837e-007 22.6599 2.45413 -0.106644 21.8657 -1.77636e-015 2.66454e-015 -41.6705 -0.894543 2.28644 11.0011 -7.10542e-015 0 -15.3472 -0.314218 -0.734445 12.8798 -1.42108e-014 -1.90735e-006 -23.8259 -0.0288366 0.0912357 13.0642 7.62939e-006 1.90735e-006 5.79956e-007 1.05883e-005 2.72203e-007 2.7143 8.18692 -0.209982 124.789 -35.2664 -16.3606 9.87129 0 2.38419e-007 -50.7106 -2.33753 -0.390398 21.8657 -4.76837e-007 -7.15256e-007 40.0196 -0.381997 6.57458 11.0011 -3.8147e-006 -3.55271e-015 14.7657 0.309174 -0.717308 12.8798 7.10543e-015 -1.43051e-006 23.1057 0.0305287 0.0972206 13.0642 -7.62939e-006 -3.33786e-006 -1.43824e-006 1.04457e-005 8.52781e-007 6.51511 7.99896 -4.29091 128.018 -31.433 7.46741 9.03709 3.8147e-006 2.22045e-016 -75.7518 1.85644 -2.81894 18.7638 2.86102e-006 -1.77636e-015 80.6159 0.269142 -1.02096 10.9666 1.42108e-014 4.44089e-016 31.9132 0.4599 -1.69904 10.8726 -7.10542e-015 -4.76837e-007 30.1382 0.0160995 -2.91266 11.2649 3.81469e-006 -1.9984e-015 -1.9858e-007 6.55463e-007 -8.32323e-008 10.8127 7.82776 -6.29737 136.779 -9.63723 52.9669 8.91072 -7.10543e-015 4.76837e-007 -110.522 -2.40002 1.49849 15.6024 1.43051e-006 2.38419e-006 139.898 -4.59277 -2.35347 9.68174 1.90735e-006 -8.88178e-016 10.334 -1.04461 -7.87836 10.6982 -3.8147e-006 -1.43051e-006 21.926 -4.11481 1.49265 11.1504 3.55271e-015 4.76837e-007 8.67232e-007 1.03373e-005 2.48432e-007 28.5502 2.54627 -3.93739 90.1418 -39.1546 50.6006 2.30267 -3.8147e-006 1.77636e-015 -36.6097 -5.27033e-005 -0.0781763 5.31894 -3.8147e-006 9.53674e-007 -36.592 -1.88023 -11.9103 9.71244 9.53674e-007 -3.55272e-015 -8.92447 3.70401 -9.59551 28.5502 -2.54612 -3.93738 90.1405 -39.1425 129.857 2.30267 -3.8147e-006 -7.10543e-015 -36.4571 -0.0021001 0.0297028 5.31896 -3.55271e-015 -5.32907e-015 -38.1999 -0.381441 -4.70293 9.71244 7.10543e-015 2.86102e-006 -20.5424 0.912932 -12.2703 15.9737 8.03546 -8.36195 44.903 50.0702 26.2931 16.8869 -3.55271e-015 1.90735e-006 -101.951 0.00154073 -0.0151416 8.42975 -7.10543e-015 -3.8147e-006 -37.5131 2.24654 -1.47965 7.53864 -0.0312023 2.09083 -12.3468 -1.50547 20.6716 14.7806 -6.70232 -9.44366 -5.16902 -85.0225 59.448 19.9827 9.53674e-007 -1.90735e-006 65.9603 3.70406 4.15829 17.4553 7.6294e-006 -1.90735e-006 80.7907 3.03178 0.0333422 13.3834 -2.22657 7.3982 8.80078 1.66344 12.2225 
-0.589095 22.1904 2.58842 0.00348704 -2.1352e-019 90 -3.49357 -5.29363 -0.000213444 -97.8611 -79.2775 -155.995 10.8127 -7.82778 -6.29737 -151.077 7.60936 44.5546 8.91071 1.90735e-006 -3.55271e-015 110.048 2.37931 1.51099 15.6024 2.32458e-006 -9.76996e-015 -135.675 6.61644 3.32899 9.68174 7.10543e-015 1.77636e-015 -18.2323 0.399552 -10.175 10.6982 -3.8147e-006 8.88178e-016 -31.9782 4.11788 0.39778 11.1504 -3.55272e-015 -5.32907e-015 4.68302e-007 1.62227e-009 -4.81692e-009 6.51511 -7.99898 -4.29089 -133.746 21.3191 21.0144 9.03709 -1.90735e-006 -2.83122e-007 96.735 -2.28543 -2.91583 18.7638 1.43051e-006 2.38419e-007 -90.2328 6.89246 9.29441 10.9666 3.8147e-006 -4.44089e-015 -34.894 -0.423199 -1.89634 10.8726 7.6294e-006 3.55271e-015 -33.0955 -0.014547 -3.09478 11.2648 -7.6294e-006 5.77316e-015 1.26696e-007 9.761e-006 -2.48827e-007 2.71429 -8.18693 -0.209972 -99.0356 22.2387 0.386625 9.8713 3.55271e-015 4.76837e-007 21.6609 2.45577 -0.0994996 21.8657 7.10543e-015 8.88178e-016 -37.4028 -0.965012 2.23963 11.0011 0 1.77636e-015 -17.3696 -0.325237 -0.789062 12.8798 -1.42108e-014 -1.90735e-006 -26.3268 -0.0252476 0.0746472 13.0642 7.62939e-006 1.90735e-006 5.79956e-007 1.05883e-005 2.72203e-007 2.7143 8.18692 -0.209982 125.194 -35.4664 -16.2264 9.87129 0 2.38419e-007 -51.7444 -2.31552 -0.413985 21.8657 -4.76837e-007 -7.15256e-007 39.5951 -0.516711 6.6866 11.0011 -3.8147e-006 3.55271e-015 15.4365 0.312944 -0.737648 12.8798 -1.42109e-014 -1.43051e-006 23.9369 0.0294486 0.0911642 13.0642 -7.62939e-006 -3.33786e-006 -1.43824e-006 1.04457e-005 8.52781e-007 6.51511 7.99896 -4.29091 127.457 -31.4518 7.17919 9.03709 3.8147e-006 0 -74.3972 1.8317 -2.7949 18.7638 2.86102e-006 -8.88178e-016 78.9483 0.195779 -0.868005 10.9666 -2.13163e-014 1.33227e-015 31.5458 0.464336 -1.67566 10.8726 -7.10542e-015 -4.76837e-007 29.7758 0.0139157 -2.88805 11.2649 3.81469e-006 -1.11022e-015 -1.9858e-007 6.55463e-007 -8.32324e-008 10.8127 7.82776 -6.29737 137.789 -9.37581 52.6537 8.91072 -3.55271e-015 4.76837e-007 -110.152 -2.38268 1.50597 15.6024 1.43051e-006 2.38419e-006 136.673 -4.24203 -1.84 9.68174 1.90735e-006 6.21725e-015 12.2311 -0.897357 -8.4588 10.6982 -3.8147e-006 -1.43051e-006 24.396 -4.11528 1.24439 11.1504 -7.10543e-015 4.76837e-007 8.67232e-007 1.03373e-005 2.48432e-007 28.5502 2.54627 -3.93739 90.2711 -39.1449 50.806 2.30267 -3.8147e-006 -7.10543e-015 -36.6899 0.0108338 -0.154846 5.31894 -3.8147e-006 9.53674e-007 -36.7856 -1.84297 -11.6877 9.71244 9.53674e-007 0 -9.0618 3.69359 -9.57882 28.5502 -2.54612 -3.93738 90.3123 -39.1218 130.136 2.30267 -3.8147e-006 -1.77636e-015 -36.3732 -0.000569211 0.124968 5.31896 1.06581e-014 -1.77636e-015 -38.0515 -0.38313 -4.59825 9.71244 3.55272e-015 2.86102e-006 -20.3293 0.88598 -12.2691 15.9737 8.03546 -8.36195 44.8822 50.0636 26.3091 16.8869 -5.32907e-015 1.90735e-006 -101.951 0.000732792 -0.0546158 8.42975 1.42109e-014 -3.8147e-006 -37.5492 2.31056 -1.48297 7.53864 -0.0312023 2.09083 -12.3468 -1.50556 20.672 14.7806 -6.70232 -9.44366 -5.72737 -84.9941 58.9194 19.9827 9.53674e-007 -1.90735e-006 65.8913 3.64939 4.0992 17.4553 7.6294e-006 -1.90735e-006 81.1096 3.03148 0.029785 13.3834 -2.22657 7.3982 8.8011 1.66185 12.2122 
-0.589095 22.2432 2.58842 0.00348704 -2.1352e-019 90 -3.49357 -5.29363 -0.000213444 -98.1628 -79.2952 -156.191 10.8127 -7.82778 -6.29737 -149.971 9.02643 44.2995 8.91071 1.90735e-006 -7.10543e-015 109.397 2.35118 1.52781 15.6024 2.32458e-006 -6.21725e-015 -134.788 6.80156 3.65975 9.68174 -3.55272e-015 1.77636e-015 -19.42 0.297217 -10.4945 10.6982 -3.8147e-006 4.44089e-015 -33.4413 4.11657 0.217722 11.1504 -7.10543e-015 -3.55271e-015 4.68302e-007 1.62227e-009 -4.81692e-009 6.51511 -7.99898 -4.29089 -133.275 21.3177 20.979 9.03709 -1.90735e-006 -2.83122e-007 94.8657 -2.24896 -2.92994 18.7638 1.43051e-006 2.38419e-007 -87.5696 6.98748 9.53237 10.9666 3.8147e-006 -8.88178e-016 -35.0444 -0.421937 -1.90462 10.8726 7.6294e-006 3.55271e-015 -33.2453 -0.015206 -3.10351 11.2648 -7.6294e-006 7.99361e-015 1.26696e-007 9.761e-006 -2.48827e-007 2.71429 -8.18693 -0.209972 -100.086 22.3927 0.926093 9.8713 0 4.76837e-007 21.9921 2.45337 -0.0990654 21.8657 -5.32907e-015 0 -35.1125 -1.02233 2.15274 11.0011 0 0 -18.5559 -0.330354 -0.819389 12.8798 -2.13163e-014 -1.90735e-006 -27.7764 -0.0227464 0.0656661 13.0642 7.62939e-006 1.90735e-006 5.79956e-007 1.05883e-005 2.72203e-007 2.7143 8.18692 -0.209982 125.657 -35.6891 -16.0602 9.87129 0 2.38419e-007 -52.879 -2.28879 -0.435833 21.8657 -4.76837e-007 -7.15256e-007 39.1433 -0.677894 6.81798 11.0011 -3.8147e-006 -2.66454e-015 16.1852 0.316038 -0.758489 12.8798 -1.42109e-014 -1.43051e-006 24.8672 0.0280311 0.0844309 13.0642 -7.62939e-006 -3.33786e-006 -1.43824e-006 1.04457e-005 8.52781e-007 6.51511 7.99896 -4.29091 126.826 -31.4658 6.85666 9.03709 3.8147e-006 -4.44089e-016 -72.8718 1.80036 -2.7624 18.7638 2.86102e-006 -2.66454e-015 77.1456 0.0944305 -0.683661 10.9666 -1.42108e-014 2.22045e-015 31.197 0.468343 -1.65214 10.8726 2.84217e-014 -4.76837e-007 29.4319 0.0134887 -2.86754 11.2649 3.81469e-006 -9.10383e-015 -1.9858e-007 6.55463e-007 -8.32324e-008 10.8127 7.82776 -6.29737 138.827 -9.25028 52.169 8.91072 -7.10543e-015 4.76837e-007 -109.779 -2.36601 1.51826 15.6024 1.43051e-006 2.38419e-006 133.651 -3.97086 -1.23987 9.68174 1.90735e-006 2.66454e-015 13.9265 -0.757828 -8.96451 10.6982 -3.8147e-006 -1.43051e-006 26.5758 -4.11649 1.01571 11.1504 -7.10543e-015 4.76837e-007 8.67232e-007 1.03373e-005 2.48432e-007 28.5502 2.54627 -3.93739 90.3838 -39.1295 51.0004 2.30267 -3.8147e-006 -1.42109e-014 -36.7747 0.0219426 -0.221191 5.31894 -3.8147e-006 9.53674e-007 -36.9753 -1.7744 -11.3259 9.71244 9.53674e-007 0 -9.28193 3.68197 -9.54945 28.5502 -2.54612 -3.93738 90.5109 -39.0895 130.451 2.30267 -3.8147e-006 -8.88179e-015 -36.2887 -0.00301713 0.278705 5.31896 -7.10543e-015 -1.77636e-015 -37.919 -0.37888 -4.43169 9.71244 8.88179e-015 2.86102e-006 -20.091 0.841203 -12.2636 15.9737 8.03546 -8.36195 44.8612 50.0569 26.3252 16.8869 -1.42109e-014 1.90735e-006 -101.951 0.0043032 -0.0890503 8.42975 7.10543e-015 -3.8147e-006 -37.6113 2.411 -1.49216 7.53864 -0.0312023 2.09083 -12.3469 -1.50405 20.6651 14.7806 -6.70232 -9.44366 -6.51201 -84.954 58.1857 19.9827 9.53674e-007 -1.90735e-006 65.7761 3.59902 3.99923 17.4553 7.6294e-006 -1.90735e-006 81.4416 3.03347 0.0285861 13.3834 -2.22657 7.3982 8.802 1.6593 12.1951 
